<mxfile host="app.diagrams.net" modified="2023-10-16T14:30:59.552Z" agent="Mozilla/5.0 (Windows NT 10.0; Win64; x64) AppleWebKit/537.36 (KHTML, like Gecko) Chrome/117.0.0.0 Safari/537.36" version="22.0.4" etag="xqT2qABbgrtWCWgGhYtL" type="github">
  <diagram name="Page-1" id="x-PgblHTGc2KK6LFVDYa">
    <mxGraphModel>
      <root>
        <mxCell id="0" />
        <mxCell id="1" parent="0" />
      </root>
    </mxGraphModel>
  </diagram>
</mxfile>
